<svg xmlns="http://www.w3.org/2000/svg" width="36" height="36" fill="none">
  <path fill="#010102" d="M31.5 12a1.5 1.5 0 0 0 1.5-1.5v-6l-.1-.6a1.5 1.5 0 0 0-1.4-.9h-6a1.5 1.5 0 0 0 0 3h2.4L18 15.9 8.1 6h2.4a1.5 1.5 0 0 0 0-3h-6l-.6.1A1.5 1.5 0 0 0 3 4.5v6a1.5 1.5 0 0 0 3 0V8.1l9.9 9.9L6 27.9v-2.4a1.5 1.5 0 0 0-3 0v6l.1.6a1.5 1.5 0 0 0 1.4.9h6a1.5 1.5 0 1 0 0-3H8.1l9.9-9.9 9.9 9.9h-2.4a1.5 1.5 0 1 0 0 3h6l.6-.1a1.5 1.5 0 0 0 .9-1.4v-6a1.5 1.5 0 1 0-3 0v2.4L20.1 18 30 8.1v2.4a1.5 1.5 0 0 0 1.5 1.5Z"/>
</svg>
