<svg xmlns="http://www.w3.org/2000/svg" width="799" height="240" fill="none">
  <path fill="#E9D0AC" d="m510.8 20.8 200.7 201.1a61.3 61.3 0 0 0 86.9 0L597.7 20.8c-24-24.1-66.7-29-90.7-5l3.8 5ZM365.1 20.8l200.7 201.1a61.3 61.3 0 0 0 87 0L452 20.8c-24-24.1-66.6-29.1-90.6-5l3.7 5Z"/>
  <path fill="#E9D0AC" d="m358.6 18.6-205 202.9a61.3 61.3 0 0 0 87 0l204.9-203a61.4 61.4 0 0 0-87 0ZM43 .5A42.9 42.9 0 0 0 0 43.6v18.6h254.9a42.8 42.8 0 0 0 43-43.1V.5h-255Z"/>
  <path fill="#E9D0AC" d="m0 62.2 154.4 159.3a61.3 61.3 0 0 0 87 0L91.7 66.4C67.8 42.4 0 62.2 0 62.2Z"/>
</svg>
