<svg xmlns="http://www.w3.org/2000/svg" width="797" height="240" fill="none">
  <path fill="#E9D0AC" d="M287.1 219.2 86.7 18.1A61.2 61.2 0 0 0 0 18l200.4 201.1c24 24.1 66.5 29 90.5 5l-3.8-5ZM432.5 219.2 232.2 18.1a61.2 61.2 0 0 0-86.8 0l200.4 201.1c24 24.1 66.5 29.1 90.5 5l-3.8-5Z"/>
  <path fill="#E9D0AC" d="M439 221.4 643.7 18.5a61.2 61.2 0 0 0-86.7 0l-204.6 203a61.3 61.3 0 0 0 86.8 0ZM754.1 239.5a42.8 42.8 0 0 0 42.9-43.1v-18.6H542.5a42.7 42.7 0 0 0-42.8 43.1v18.6H754Z"/>
  <path fill="#E9D0AC" d="M797 177.8 642.8 18.5a61.2 61.2 0 0 0-86.7 0l149.2 155.1c24 24 91.7 4.2 91.7 4.2Z"/>
</svg>
