<svg width="24" height="25" viewBox="0 0 24 25" fill="none" xmlns="http://www.w3.org/2000/svg">
<path d="M12 2.5C10.0222 2.5 8.08879 3.08649 6.4443 4.1853C4.79981 5.28412 3.51809 6.8459 2.76121 8.67317C2.00433 10.5004 1.8063 12.5111 2.19215 14.4509C2.578 16.3907 3.53041 18.1725 4.92894 19.5711C6.32746 20.9696 8.10929 21.922 10.0491 22.3079C11.9889 22.6937 13.9996 22.4957 15.8268 21.7388C17.6541 20.9819 19.2159 19.7002 20.3147 18.0557C21.4135 16.4112 22 14.4778 22 12.5C21.9971 9.84873 20.9426 7.30688 19.0679 5.43215C17.1931 3.55742 14.6513 2.50291 12 2.5ZM12 20.5C10.4178 20.5 8.87104 20.0308 7.55544 19.1518C6.23985 18.2727 5.21447 17.0233 4.60897 15.5615C4.00347 14.0997 3.84504 12.4911 4.15372 10.9393C4.4624 9.38743 5.22433 7.96197 6.34315 6.84315C7.46197 5.72433 8.88743 4.9624 10.4393 4.65372C11.9911 4.34504 13.5997 4.50346 15.0615 5.10896C16.5233 5.71447 17.7727 6.73984 18.6518 8.05544C19.5308 9.37103 20 10.9177 20 12.5C19.9974 14.6209 19.1537 16.6542 17.6539 18.1539C16.1542 19.6536 14.1209 20.4974 12 20.5ZM12 12C11.7348 12 11.4804 12.1054 11.2929 12.2929C11.1054 12.4804 11 12.7348 11 13V16C11 16.2652 11.1054 16.5196 11.2929 16.7071C11.4804 16.8946 11.7348 17 12 17C12.2652 17 12.5196 16.8946 12.7071 16.7071C12.8946 16.5196 13 16.2652 13 16V13C13 12.7348 12.8946 12.4804 12.7071 12.2929C12.5196 12.1054 12.2652 12 12 12ZM12 8C11.7528 8 11.5111 8.07331 11.3055 8.21066C11.1 8.34801 10.9398 8.54324 10.8452 8.77165C10.7505 9.00005 10.7258 9.25139 10.774 9.49386C10.8223 9.73634 10.9413 9.95907 11.1161 10.1339C11.2909 10.3087 11.5137 10.4278 11.7561 10.476C11.9986 10.5242 12.25 10.4995 12.4784 10.4048C12.7068 10.3102 12.902 10.15 13.0393 9.94446C13.1767 9.7389 13.25 9.49723 13.25 9.25C13.25 8.91848 13.1183 8.60054 12.8839 8.36612C12.6495 8.1317 12.3315 8 12 8Z" fill="#DB4444"/>
</svg>
