<svg width="103" height="120" viewBox="0 0 103 120" fill="none" xmlns="http://www.w3.org/2000/svg">
<path d="M77.1429 34.2857V47.1429C77.1429 48.2795 76.6913 49.3696 75.8876 50.1733C75.0839 50.977 73.9938 51.4286 72.8571 51.4286H68.5714V34.2857H34.2857V51.4286H30C28.8634 51.4286 27.7733 50.977 26.9695 50.1733C26.1658 49.3696 25.7143 48.2795 25.7143 47.1429V34.2857H8.57143V111.429H94.2857V34.2857H77.1429ZM25.7143 25.7143C25.7143 18.8944 28.4235 12.3539 33.2458 7.53154C38.0682 2.70918 44.6087 0 51.4286 0C58.2484 0 64.789 2.70918 69.6113 7.53154C74.4337 12.3539 77.1429 18.8944 77.1429 25.7143H98.5714C99.7081 25.7143 100.798 26.1658 101.602 26.9695C102.406 27.7733 102.857 28.8634 102.857 30V115.714C102.857 116.851 102.406 117.941 101.602 118.745C100.798 119.548 99.7081 120 98.5714 120H4.28571C3.14907 120 2.05898 119.548 1.25526 118.745C0.45153 117.941 0 116.851 0 115.714V30C0 28.8634 0.45153 27.7733 1.25526 26.9695C2.05898 26.1658 3.14907 25.7143 4.28571 25.7143H25.7143ZM34.2857 25.7143H68.5714C68.5714 21.1677 66.7653 16.8074 63.5504 13.5925C60.3355 10.3775 55.9751 8.57143 51.4286 8.57143C46.882 8.57143 42.5216 10.3775 39.3067 13.5925C36.0918 16.8074 34.2857 21.1677 34.2857 25.7143Z" fill="#222E3C"/>
<path d="M8.57227 85.7142H94.2865V94.2857H8.57227V85.7142Z" fill="#222E3C"/>
</svg>
