<svg width="118" height="120" viewBox="0 0 118 120" fill="none" xmlns="http://www.w3.org/2000/svg">
<path fill-rule="evenodd" clip-rule="evenodd" d="M60.3277 0.959206C58.4824 1.87868 56.6792 3.76457 55.5026 6.00494C54.5233 7.87051 54.5712 13.0479 55.5856 14.937C57.5451 18.5855 60.6906 20.5246 64.641 20.519C67.8786 20.5141 70.2493 19.4731 72.3541 17.1322C76.9273 12.0455 75.2344 3.84408 68.9872 0.820147C66.6218 -0.325257 62.781 -0.263609 60.3277 0.959206ZM78.5287 2.533C76.3861 3.76177 76.4103 3.4262 78.1224 8.21413C80.1891 13.9937 79.9456 19.9102 77.4268 25.095C75.6526 28.7477 73.256 31.6385 69.9232 34.1468L67.2299 36.1742L68.4401 38.3291C69.1056 39.5141 69.7985 40.5334 69.9796 40.5937C70.5361 40.7793 74.503 37.9386 76.6779 35.7974C80.3789 32.1538 83.1647 27.3179 84.3108 22.5485C85.1013 19.2587 85.1094 12.8627 84.3272 9.5077C83.7104 6.86206 81.4042 1.72876 80.7537 1.55292C80.5611 1.50073 79.56 1.94208 78.5287 2.533ZM67.1581 6.3377C68.6075 7.2218 69.0962 8.18576 69.127 10.2226C69.169 13.0143 67.3812 14.8785 64.662 14.8785C62.9232 14.8785 61.2332 13.848 60.4324 12.2998C58.3504 8.27333 63.2336 3.94461 67.1581 6.3377ZM35.1404 13.3569C28.6813 16.6148 27.078 24.5787 31.9084 29.409C33.9564 31.4574 35.4773 32.0834 38.4277 32.0925C40.6576 32.0995 41.1031 31.9835 42.4282 31.0497C43.2482 30.4717 43.9866 29.7947 44.0689 29.5453C44.1512 29.2959 43.4367 28.3098 42.4808 27.3539C40.7504 25.6239 40.7378 25.6183 39.5566 26.0943C37.3226 26.9949 35.1971 25.7924 34.8104 23.4095C34.547 21.7866 35.7894 19.1403 37.1432 18.4401C39.9864 16.97 44.0931 17.5522 46.4942 19.7655C47.3492 20.5533 48.1878 21.4584 48.358 21.7761C49.0134 23.0011 49.3728 27.9613 49.0397 31.1821C48.6768 34.6908 47.7244 38.9309 47.2992 38.9309C47.1513 38.9309 46.028 38.464 44.802 37.8938C42.2944 36.7263 38.9391 35.7784 37.3145 35.7784C35.6605 35.7784 32.8453 37.3603 31.013 39.319C29.82 40.5944 28.6123 42.6435 26.6339 46.7484C22.1458 56.0612 13.7693 76.0662 5.27333 97.763C-0.372076 112.181 -0.711143 113.57 0.705726 116.497C1.13587 117.385 2.05079 118.542 2.73943 119.066C3.91636 119.963 4.20078 120.019 7.51965 119.996L11.0487 119.973L20.8564 116.098C61.1508 100.178 77.9704 92.7719 81.3951 89.4404C85.6996 85.2529 85.6761 81.6503 81.2872 72.9228C80.4679 71.2937 79.1848 68.991 78.4366 67.806C77.6881 66.621 77.0758 65.5733 77.0758 65.478C77.0758 65.2048 81.6879 62.2085 83.5885 61.247C86.0636 59.9952 89.7544 58.9279 92.4887 58.6736C95.4779 58.3958 98.7635 59.3195 101.826 61.2989C106.739 64.4745 107.739 68.5972 104.405 71.9319C103.231 73.106 102.882 73.258 101.36 73.258C98.7355 73.258 96.7193 72.0867 95.6404 69.9353C94.7924 68.2442 94.6951 68.173 92.55 67.6792C89.8872 67.0665 89.5477 67.3296 89.884 69.7444C90.6168 75.0059 95.8461 79.1588 101.245 78.7665C111.094 78.0512 115.163 67.1005 108.372 59.5843C106.623 57.6476 102.691 55.1158 99.9093 54.134C97.974 53.4506 96.865 53.3059 93.5248 53.2996C91.0315 53.2951 88.6829 53.4965 87.395 53.825C84.8159 54.4832 79.6209 56.9481 76.3413 59.0697C74.9868 59.9461 73.7601 60.6992 73.6161 60.743C73.4718 60.7871 71.6928 59.0105 69.6622 56.795C65.6116 52.3752 60.8577 48.09 55.9748 44.4579C54.2343 43.163 52.7498 42.0431 52.6762 41.9696C52.6027 41.896 52.954 40.1972 53.4574 38.1943C54.5726 33.7542 55.0003 26.3262 54.3197 23.2172C53.3001 18.5592 51.0384 15.4526 47.2273 13.4756C45.5884 12.6252 44.9134 12.5001 41.3476 12.3863C37.4108 12.2605 37.27 12.2826 35.1404 13.3569ZM93.3731 18.7396C92.8494 19.1228 92.662 19.9547 92.4063 23.0305C91.8259 30.0202 92.0151 29.4587 89.6462 31.2248C86.9718 33.2186 84.7819 35.5644 84.7819 36.4349C84.7819 37.5883 86.962 39.0914 90.6308 40.4676L94.1602 41.7913L95.7995 45.3525C97.6738 49.4235 98.5176 50.49 99.8641 50.49C100.932 50.49 102.296 49.1436 104.747 45.6685C106.428 43.2849 106.078 43.4071 112.533 42.9426C116.114 42.6848 117.358 41.999 117.358 40.2837C117.358 38.9155 117.002 38.278 114.288 34.7858L112.019 31.8665L112.937 28.4517C114.098 24.1307 114.134 22.3534 113.076 21.6122C111.975 20.8402 111.294 20.9141 107.03 22.2672L103.248 23.4676L99.5755 20.8661C95.8051 18.1953 94.6562 17.8015 93.3731 18.7396ZM100.251 28.189L102.234 29.5316L104.717 28.829C107.493 28.0433 107.472 28.0233 106.661 30.6977C105.996 32.8908 106.219 33.9248 107.744 35.7056C108.408 36.4811 108.951 37.1904 108.951 37.2815C108.951 37.3729 107.787 37.5564 106.365 37.6899C103.627 37.9463 102.947 38.3708 101.425 40.7699C101.089 41.2998 100.684 41.7331 100.525 41.7331C100.365 41.7331 99.7369 40.7982 99.1278 39.6556C98.1074 37.741 97.8433 37.5028 95.7589 36.617L93.4971 35.6555L95.5224 33.8442L97.5481 32.0326L97.684 29.3358C97.7589 27.8524 97.9211 26.6856 98.0441 26.7427C98.167 26.7998 99.16 27.4506 100.251 28.189ZM42.7487 42.861C45.6196 44.1434 45.6662 44.2775 44.2962 47.3376C43.6493 48.7825 43.1154 50.1499 43.1095 50.3769C43.0979 50.8361 46.5828 52.942 47.3545 52.942C47.6256 52.942 48.4782 51.6691 49.2495 50.1131L50.652 47.284L52.7425 48.8994C55.8315 51.2859 64.1187 58.9923 66.7724 61.9455L69.0839 64.5179L67.0376 66.7068C65.9121 67.9107 64.3751 69.6477 63.6224 70.5675L62.2535 72.2394L63.6224 73.6521C66.0148 76.1212 65.8522 76.158 69.5039 72.3242L72.765 68.9002L74.412 71.6919C77.0015 76.0812 78.4822 79.363 78.9095 81.6608C79.4342 84.4823 79.1691 84.7565 76.4611 84.1894C65.1773 81.8265 44.8157 63.1105 37.8434 48.6928C36.4641 45.8408 35.8286 43.2786 36.2367 42.2155C36.5562 41.3829 40.2614 41.7503 42.7487 42.861ZM33.2503 51.9787C33.8254 53.183 35.4108 55.8556 36.7737 57.9184L39.2515 61.6688L39.1612 82.258L39.0708 102.848L36.4437 103.967C34.9988 104.583 33.3834 105.193 32.8534 105.323L31.8901 105.559V77.6743C31.8901 62.3378 31.9609 49.7895 32.0474 49.7895C32.1339 49.7895 32.6751 50.7748 33.2503 51.9787ZM26.2784 84.5544L26.271 108.111L22.9507 109.383L19.6305 110.655L19.6143 93.9706L19.5986 77.2862L22.8544 69.1482C24.6454 64.6724 26.1498 61.0078 26.1981 61.0043C26.2465 61.0011 26.2826 71.5984 26.2784 84.5544ZM48.4628 71.8079L51.8559 75.2616V81.2096C51.8559 84.4812 51.7536 89.5203 51.6286 92.4076L51.4016 97.6576L48.2771 98.9778C46.559 99.7042 45.0773 100.223 44.9852 100.131C44.6395 99.7848 44.3856 68.3541 44.7285 68.3541C44.9162 68.3541 46.5965 69.9083 48.4628 71.8079ZM63.042 83.9551C64.4743 84.8795 67.0397 86.3713 68.7427 87.2708L71.8392 88.9066L68.4152 90.5095C65.5349 91.858 58.2642 94.9752 57.9987 94.9752C57.7437 94.9752 57.5167 86.3457 57.6989 83.574L57.9146 80.287L59.1763 81.2811C59.8699 81.8279 61.6097 83.0311 63.042 83.9551ZM13.6758 102.459V112.744L10.2938 114.023C7.11438 115.225 6.87374 115.267 6.26566 114.717C5.2383 113.787 5.4933 111.95 7.23138 107.76C8.11057 105.641 9.86686 101.267 11.1342 98.0401C12.4015 94.8133 13.4915 92.1729 13.557 92.1729C13.6222 92.1729 13.6758 96.8015 13.6758 102.459Z" fill="#222E3C"/>
</svg>
