<svg width="20" height="20" viewBox="0 0 20 20" fill="none" xmlns="http://www.w3.org/2000/svg">
<path fill-rule="evenodd" clip-rule="evenodd" d="M9.43225 4.77361C9.62519 4.82195 9.79103 4.94495 9.89328 5.11556C9.99554 5.28617 10.0258 5.49041 9.9775 5.68336L9.6475 7.00111H11.8525L12.2725 5.31886C12.2959 5.22271 12.338 5.13214 12.3965 5.05235C12.455 4.97257 12.5288 4.90515 12.6134 4.85398C12.6981 4.80282 12.7921 4.76891 12.8899 4.75422C12.9878 4.73953 13.0876 4.74435 13.1836 4.76839C13.2795 4.79244 13.3698 4.83523 13.4492 4.89432C13.5285 4.9534 13.5954 5.0276 13.646 5.11265C13.6965 5.1977 13.7298 5.29191 13.7438 5.38986C13.7578 5.48781 13.7522 5.58755 13.7275 5.68336L13.3975 7.00111H15.25C15.4489 7.00111 15.6397 7.08012 15.7803 7.22078C15.921 7.36143 16 7.55219 16 7.75111C16 7.95002 15.921 8.14078 15.7803 8.28144C15.6397 8.42209 15.4489 8.50111 15.25 8.50111H13.0225L12.2725 11.5011H13.75C13.9489 11.5011 14.1397 11.5801 14.2803 11.7208C14.421 11.8614 14.5 12.0522 14.5 12.2511C14.5 12.45 14.421 12.6408 14.2803 12.7814C14.1397 12.9221 13.9489 13.0011 13.75 13.0011H11.8975L11.4775 14.6826C11.455 14.7796 11.4134 14.8712 11.3552 14.9519C11.2969 15.0327 11.2232 15.101 11.1383 15.153C11.0533 15.205 10.9589 15.2395 10.8604 15.2546C10.762 15.2696 10.6616 15.265 10.565 15.2408C10.4684 15.2167 10.3776 15.1735 10.2978 15.1139C10.2181 15.0543 10.151 14.9794 10.1005 14.8935C10.05 14.8077 10.0171 14.7127 10.0037 14.614C9.9903 14.5154 9.9967 14.415 10.0225 14.3189L10.3525 13.0011H8.1475L7.7275 14.6826C7.70501 14.7796 7.66343 14.8712 7.60518 14.9519C7.54694 15.0327 7.47319 15.101 7.38825 15.153C7.30331 15.205 7.20887 15.2395 7.11045 15.2546C7.01202 15.2696 6.91158 15.265 6.81498 15.2408C6.71838 15.2167 6.62756 15.1735 6.54781 15.1139C6.46806 15.0543 6.40098 14.9794 6.35048 14.8935C6.29998 14.8077 6.26708 14.7127 6.25369 14.614C6.2403 14.5154 6.2467 14.415 6.2725 14.3189L6.6025 13.0011H4.75C4.55109 13.0011 4.36032 12.9221 4.21967 12.7814C4.07902 12.6408 4 12.45 4 12.2511C4 12.0522 4.07902 11.8614 4.21967 11.7208C4.36032 11.5801 4.55109 11.5011 4.75 11.5011H6.9775L7.7275 8.50111H6.25C6.05109 8.50111 5.86032 8.42209 5.71967 8.28144C5.57902 8.14078 5.5 7.95002 5.5 7.75111C5.5 7.55219 5.57902 7.36143 5.71967 7.22078C5.86032 7.08012 6.05109 7.00111 6.25 7.00111H8.1025L8.5225 5.31886C8.57084 5.12591 8.69384 4.96008 8.86445 4.85782C9.03506 4.75557 9.23931 4.72528 9.43225 4.77361ZM9.2725 8.50111L8.5225 11.5011H10.726L11.476 8.50111H9.27325H9.2725Z" fill="#E9D0AC"/>
</svg>
