<svg xmlns="http://www.w3.org/2000/svg" width="93" height="30" fill="none">
  <g clip-path="url(#a)">
    <path fill="#B38A5A" d="m.3 8.45 17.75 18.3a7.05 7.05 0 0 0 9.98 0L10.86 8.93C8.1 6.18.3 8.45.3 8.45Z"/>
    <path fill="#fff" d="M5.24 1.36A4.93 4.93 0 0 0 .31 6.32v2.13h29.28a4.92 4.92 0 0 0 4.94-4.96V1.36H5.24Z"/>
    <path fill="#F2E4C8" d="M41.5 3.44 17.97 26.75a7.05 7.05 0 0 0 9.99 0L51.49 3.44a7.06 7.06 0 0 0-9.98 0Z"/>
    <path fill="#fff" d="M42.26 3.69 65.33 26.8a7.05 7.05 0 0 0 9.98 0L52.25 3.69C49.49.92 44.59.35 41.83 3.1l.43.58ZM59 3.69 82.07 26.8a7.05 7.05 0 0 0 9.98 0L68.98 3.69C66.22.92 61.33.35 58.57 3.1l.43.58Z"/>
  </g>
  <defs>
    <clipPath id="a">
      <path fill="#fff" d="M0 0h92.25v30H0z"/>
    </clipPath>
  </defs>
</svg>
