<svg width="120" height="120" viewBox="0 0 120 120" fill="none" xmlns="http://www.w3.org/2000/svg">
<path fill-rule="evenodd" clip-rule="evenodd" d="M18.2812 93.75C20.3524 93.75 22.0312 95.4289 22.0312 97.5C22.0312 100.944 23.0385 103.797 24.6262 105.717C26.1545 107.564 28.3736 108.75 31.4062 108.75H62.3438C65.3765 108.75 67.5956 107.564 69.1239 105.717C70.7116 103.797 71.7189 100.944 71.7189 97.5C71.7189 95.4289 73.3978 93.75 75.4689 93.75C77.5399 93.75 79.2189 95.4289 79.2189 97.5C79.2189 102.341 77.8062 106.988 74.9027 110.497C71.9397 114.079 67.5962 116.25 62.3438 116.25H31.4062C26.1539 116.25 21.8105 114.079 18.8475 110.497C15.944 106.988 14.5312 102.341 14.5312 97.5C14.5312 95.4289 16.2102 93.75 18.2812 93.75Z" fill="#222E3C"/>
<path fill-rule="evenodd" clip-rule="evenodd" d="M15 82.5C13.6672 82.5 11.25 84.1948 11.25 88.125C11.25 92.0552 13.6672 93.75 15 93.75H78.75C80.0829 93.75 82.5 92.0552 82.5 88.125C82.5 84.1948 80.0829 82.5 78.75 82.5C76.6789 82.5 75 80.8211 75 78.75C75 76.6789 76.6789 75 78.75 75C85.7 75 90 81.7005 90 88.125C90 94.5495 85.7 101.25 78.75 101.25H15C8.05004 101.25 3.75 94.5495 3.75 88.125C3.75 81.7005 8.05004 75 15 75C17.0711 75 18.75 76.6789 18.75 78.75C18.75 80.8211 17.0711 82.5 15 82.5Z" fill="#222E3C"/>
<path fill-rule="evenodd" clip-rule="evenodd" d="M13.125 71.25C12.6277 71.25 12.1508 71.4475 11.7992 71.7992C11.4475 72.1508 11.25 72.6277 11.25 73.125C11.25 73.6223 11.4475 74.0992 11.7992 74.4508C12.1508 74.8025 12.6277 75 13.125 75H25.476C26.9658 75.0007 28.3945 75.5924 29.4486 76.6453L33.75 80.9467L38.0514 76.6453C39.1055 75.5924 40.5342 75.0007 42.024 75H80.625C81.1223 75 81.5992 74.8025 81.9508 74.4508C82.3025 74.0992 82.5 73.6223 82.5 73.125C82.5 72.6277 82.3025 72.1508 81.9508 71.7992C81.5992 71.4475 81.1223 71.25 80.625 71.25H13.125ZM6.49587 66.4959C8.25402 64.7377 10.6386 63.75 13.125 63.75H80.625C83.1114 63.75 85.496 64.7377 87.2541 66.4959C89.0123 68.254 90 70.6386 90 73.125C90 75.6114 89.0123 77.996 87.2541 79.7541C85.496 81.5123 83.1114 82.5 80.625 82.5H42.8033L37.0664 88.2369C37.0659 88.2374 37.0654 88.2379 37.0649 88.2384C36.6299 88.6735 36.1134 89.0187 35.545 89.2544C34.9759 89.4903 34.366 89.6117 33.75 89.6117C33.134 89.6117 32.5241 89.4903 31.955 89.2544C31.3866 89.0187 30.8701 88.6735 30.4351 88.2384C30.4346 88.2379 30.4341 88.2374 30.4336 88.2369L24.6967 82.5H13.125C10.6386 82.5 8.25402 81.5123 6.49587 79.7541C4.73772 77.996 3.75 75.6114 3.75 73.125C3.75 70.6386 4.73772 68.254 6.49587 66.4959Z" fill="#222E3C"/>
<path fill-rule="evenodd" clip-rule="evenodd" d="M24.1843 52.9462C20.8616 55.5255 18.75 59.336 18.75 64.6359V64.6875C18.75 66.7586 17.0711 68.4375 15 68.4375C12.9289 68.4375 11.25 66.7586 11.25 64.6875V64.6359C11.25 57.0453 14.4118 51.0378 19.5853 47.0218C24.6512 43.0892 31.3878 41.25 38.4375 41.25H55.3125C62.3684 41.25 69.106 43.1052 74.1703 47.0519C79.321 51.0658 82.4771 57.0548 82.4999 64.6051C82.5 64.6154 82.5 64.6256 82.5 64.6359C82.5 64.6531 82.5 64.6703 82.5 64.6875H75C75 59.386 72.8869 55.5602 69.5601 52.9676C66.1284 50.2932 61.1472 48.75 55.3125 48.75H38.4375C32.5966 48.75 27.6145 50.2834 24.1843 52.9462Z" fill="#222E3C"/>
<path fill-rule="evenodd" clip-rule="evenodd" d="M56.0515 22.5251C58.1087 22.2858 59.9703 23.7596 60.2096 25.8168L61.9533 40.8097C62.1926 42.8669 60.7189 44.7286 58.6617 44.9678C56.6045 45.2071 54.7428 43.7334 54.5035 41.6762L52.7598 26.6832C52.5205 24.626 53.9943 22.7644 56.0515 22.5251Z" fill="#222E3C"/>
<path fill-rule="evenodd" clip-rule="evenodd" d="M108.91 22.5209C110.97 22.7387 112.463 24.5848 112.245 26.6444L103.864 105.903C103.638 108.71 102.368 111.33 100.303 113.247C98.2224 115.177 95.4891 116.25 92.6508 116.25H60C57.9289 116.25 56.25 114.571 56.25 112.5C56.25 110.429 57.9289 108.75 60 108.75H92.6507C93.5968 108.75 94.5079 108.392 95.2014 107.749C95.8949 107.105 96.3195 106.223 96.3902 105.28L96.3944 105.223L104.786 25.8558C105.004 23.7962 106.85 22.3031 108.91 22.5209Z" fill="#222E3C"/>
<path fill-rule="evenodd" clip-rule="evenodd" d="M104.565 6.29155C105.233 8.25213 104.185 10.3826 102.224 11.05L93.1424 14.1416L89.8879 27.1596C89.3856 29.1688 87.3496 30.3904 85.3404 29.8881C83.3312 29.3858 82.1096 27.3498 82.6119 25.3406L86.3619 10.3406C86.6708 9.10492 87.5857 8.11055 88.7914 7.7001L99.807 3.95011C101.768 3.28268 103.898 4.33098 104.565 6.29155Z" fill="#222E3C"/>
<path fill-rule="evenodd" clip-rule="evenodd" d="M48.75 26.25C48.75 24.1789 50.4289 22.5 52.5 22.5H112.5C114.571 22.5 116.25 24.1789 116.25 26.25C116.25 28.3211 114.571 30 112.5 30H52.5C50.4289 30 48.75 28.3211 48.75 26.25Z" fill="#222E3C"/>
</svg>
